<?xml version="1.0" encoding="utf-8"?>
<!-- Generator: Adobe Illustrator 27.5.0, SVG Export Plug-In . SVG Version: 6.00 Build 0)  -->
<svg version="1.1" id="Layer_1" xmlns="http://www.w3.org/2000/svg" xmlns:xlink="http://www.w3.org/1999/xlink" x="0px" y="0px"
	 viewBox="0 0 136.1 136.1" style="enable-background:new 0 0 136.1 136.1;" xml:space="preserve">
<style type="text/css">
	.st0{fill:#FAFAE3;}
	.st1{fill:#6CBE45;}
	.st2{fill:#DEE6C4;}
	.st3{fill:#355B47;}
	.st4{fill:#8CA27B;}
	.st5{fill:#FAA21B;stroke:#000000;stroke-width:1.000000e-02;stroke-miterlimit:10;}
	.st6{fill:#C84C29;}
	.st7{opacity:0.55;}
</style>
<rect x="0.3" y="0.2" class="st0" width="135.4" height="136.4"/>
<rect x="5.9" y="39" class="st1" width="15.9" height="13.7"/>
<path class="st1" d="M37.8,39c0,7.5-7,13.6-15.7,13.7h-0.3V39H37.8z"/>
<path class="st1" d="M53.7,39v13.7c0,0,0,0,0,0H37.8v0c0-6.7,5.6-12.3,13-13.5C51.8,39.1,52.7,39,53.7,39z"/>
<rect x="53.7" y="39" class="st1" width="15.9" height="13.7"/>
<path class="st1" d="M85.6,52.6v0.2H69.7V39h0C78.4,39,85.5,45.1,85.6,52.6z"/>
<path class="st1" d="M85.6,52.6v0.1h0L85.6,52.6C85.6,52.6,85.6,52.6,85.6,52.6z"/>
<path class="st1" d="M101.6,52.6v0.1h0L101.6,52.6C101.6,52.6,101.6,52.6,101.6,52.6z"/>
<path class="st1" d="M133.4,39v13.7h-8c-0.5,0-0.9,0-1.4-0.1c-3.7-0.6-6.6-3.4-6.6-6.8c0-3.8,3.6-6.9,8-6.9H133.4z"/>
<rect x="5.9" y="52.8" class="st1" width="15.9" height="13.7"/>
<path class="st1" d="M37.8,66.4v0.1H21.9V52.8h0.3c0,0-0.1,0-0.1,0c0,0,0.1,0,0.1,0C30.7,52.9,37.7,58.9,37.8,66.4L37.8,66.4
	C37.8,66.4,37.8,66.4,37.8,66.4z"/>
<path class="st1" d="M53.7,52.8C53.7,52.8,53.7,52.8,53.7,52.8v13.7H37.8V52.8H53.7z"/>
<path class="st1" d="M69.7,52.8H53.7c0,7.4,7,13.5,15.8,13.7H53.7V52.8c0,0,0,0,0,0L69.7,52.8L69.7,52.8z"/>
<path class="st1" d="M117.5,66.4C117.5,66.4,117.5,66.4,117.5,66.4v0.1h-15.9V52.8h0c0.1,0,0.2,0,0.3,0
	C110.4,52.9,117.4,58.9,117.5,66.4L117.5,66.4C117.5,66.4,117.5,66.4,117.5,66.4z"/>
<rect x="5.9" y="66.5" class="st1" width="15.9" height="13.7"/>
<rect x="21.9" y="66.5" class="st1" width="15.9" height="13.7"/>
<rect x="37.8" y="66.5" class="st1" width="15.9" height="13.7"/>
<rect x="53.7" y="66.5" class="st1" width="15.9" height="13.7"/>
<rect x="69.7" y="66.5" class="st1" width="15.9" height="13.7"/>
<path class="st1" d="M101.5,66.5v0.2c-0.1,7.3-6.9,13.3-15.4,13.5h-0.6V66.5H101.5z"/>
<rect x="101.5" y="66.5" class="st1" width="15.9" height="13.7"/>
<rect x="117.5" y="66.5" class="st1" width="15.9" height="13.7"/>
<rect x="5.9" y="80.2" class="st1" width="15.9" height="13.7"/>
<rect x="21.9" y="80.2" class="st1" width="15.9" height="13.7"/>
<rect x="37.8" y="80.2" class="st1" width="15.9" height="13.7"/>
<rect x="53.7" y="80.2" class="st1" width="15.9" height="13.7"/>
<rect x="69.7" y="80.2" class="st1" width="15.9" height="13.7"/>
<path class="st1" d="M101.5,93.7V94H85.6V80.2h0.6c-0.1,0-0.2,0-0.3,0c0,0-0.1,0-0.1,0c0,0,0.1,0,0.1,0
	C94.5,80.4,101.4,86.3,101.5,93.7z"/>
<rect x="101.5" y="80.2" class="st1" width="15.9" height="13.7"/>
<rect x="117.5" y="80.2" class="st1" width="15.9" height="13.7"/>
<path class="st2" d="M124.1,52.7c0.4,0.1,0.9,0.1,1.4,0.1h-8v13.6c0,0,0,0,0,0v-0.1c-0.1-7.4-7.1-13.4-15.7-13.6c-0.1,0-0.2,0-0.3,0
	v-0.1c0,0,0,0,0,0C101.4,45.1,94.4,39,85.6,39h39.8c-4.4,0-8,3.1-8,6.9C117.5,49.3,120.4,52.1,124.1,52.7z"/>
<path class="st2" d="M101.6,52.6v0.1h0L101.6,52.6C101.6,52.6,101.6,52.6,101.6,52.6z"/>
<rect x="53.7" y="39" class="st3" width="15.9" height="13.7"/>
<path class="st2" d="M53.7,39c-1,0-2,0.1-2.9,0.2c-7.4,1.2-13,6.8-13,13.5v13.6c0,0,0,0,0,0v-0.1c-0.1-7.4-7.1-13.4-15.7-13.6
	c0,0-0.1,0-0.1,0c0,0,0.1,0,0.1,0c8.7-0.1,15.7-6.2,15.7-13.7H53.7z"/>
<path class="st2" d="M53.7,39v13.7c0,0,0,0,0,0H37.8v0c0-6.7,5.6-12.3,13-13.5C51.8,39.1,52.7,39,53.7,39L53.7,39z"/>
<path class="st2" d="M37.8,39c0,7.5-7,13.6-15.7,13.7h-0.3V39H37.8z"/>
<rect x="5.9" y="39" class="st2" width="15.9" height="13.7"/>
<rect x="5.9" y="52.8" class="st4" width="15.9" height="13.7"/>
<path class="st2" d="M37.8,66.4v0.1H21.9V52.8H22c0,0,0.1,0,0.1,0C30.7,52.9,37.7,58.9,37.8,66.4L37.8,66.4
	C37.8,66.4,37.8,66.4,37.8,66.4z"/>
<rect x="5.9" y="66.5" class="st2" width="15.9" height="13.7"/>
<rect x="21.9" y="66.5" class="st2" width="15.9" height="13.7"/>
<rect x="37.8" y="80.2" class="st4" width="15.9" height="13.7"/>
<rect x="5.9" y="80.2" class="st5" width="15.9" height="13.7"/>
<rect x="37.8" y="52.8" class="st2" width="15.9" height="13.7"/>
<rect x="37.8" y="66.5" class="st3" width="15.9" height="13.7"/>
<rect x="53.7" y="80.2" class="st2" width="15.9" height="13.7"/>
<rect x="69.7" y="80.2" class="st2" width="15.9" height="13.7"/>
<path class="st3" d="M101.5,66.7v27c-0.2-7.4-7.1-13.3-15.7-13.5c0,0-0.1,0-0.1,0c0,0,0.1,0,0.1,0c0.1,0,0.2,0,0.3,0
	C94.6,80,101.4,74.1,101.5,66.7z"/>
<path class="st3" d="M101.6,80.2v13.6c0,0,0,0,0,0V94H85.6V80.2h0.1c0,0,0.1,0,0.1,0c8.6,0.1,15.5,6.1,15.7,13.5L101.6,80.2
	L101.6,80.2z"/>
<rect x="101.6" y="80.2" class="st3" width="15.9" height="13.7"/>
<rect x="117.5" y="80.2" class="st6" width="15.9" height="13.7"/>
<rect x="21.9" y="80.2" class="st4" width="15.9" height="13.7"/>
<path class="st5" d="M69.7,66.5L69.7,66.5l-15.9,0V52.8c0,7.4,7,13.5,15.8,13.7H69.7z"/>
<rect x="53.7" y="66.5" class="st4" width="15.9" height="13.7"/>
<rect x="69.7" y="66.5" class="st4" width="15.9" height="13.7"/>
<path class="st3" d="M101.6,66.5v13.7h0V66.7c-0.1,7.3-6.9,13.3-15.4,13.5c-0.1,0-0.2,0-0.3,0h-0.3V66.5H101.6z"/>
<rect x="101.6" y="66.5" class="st6" width="15.9" height="13.7"/>
<rect x="117.5" y="39.1" class="st5" width="15.9" height="13.7"/>
<rect x="117.5" y="66.5" class="st2" width="15.9" height="13.7"/>
<path class="st4" d="M85.6,52.8v13.7H69.7v0h15.9v-0.3c-0.2-7.3-6.9-13.2-15.4-13.4H85.6z"/>
<rect x="85.6" y="52.8" class="st2" width="15.9" height="13.7"/>
<rect x="117.5" y="52.8" class="st4" width="15.9" height="13.7"/>
<path class="st6" d="M21.9,39v13.7H5.9c0,0,0,0,0,0C5.9,45.2,13.1,39,21.9,39L21.9,39z"/>
<path class="st3" d="M37.8,66.4L37.8,66.4C37.8,66.4,37.8,66.4,37.8,66.4v0.1H21.9V52.8c0,0,0.1,0,0.1,0c0,0,0.1,0,0.1,0
	C30.7,52.9,37.7,58.9,37.8,66.4L37.8,66.4C37.8,66.4,37.8,66.4,37.8,66.4L37.8,66.4z"/>
<path class="st4" d="M101.6,93.9C101.6,93.9,101.6,93.9,101.6,93.9L101.6,93.9L101.6,93.9C101.6,93.9,101.6,93.9,101.6,93.9V94H85.6
	V80.2c0,0,0.1,0,0.1,0c0,0,0.1,0,0.1,0c8.6,0.1,15.5,6.1,15.7,13.5C101.6,93.7,101.6,93.8,101.6,93.9L101.6,93.9
	C101.6,93.9,101.6,93.9,101.6,93.9z"/>
<path class="st5" d="M117.5,93.9C117.5,93.9,117.5,93.9,117.5,93.9L117.5,93.9C117.5,93.9,117.5,93.9,117.5,93.9
	C117.5,93.9,117.5,93.9,117.5,93.9V94h-15.9V80.2C110.3,80.2,117.4,86.3,117.5,93.9L117.5,93.9C117.5,93.9,117.5,93.9,117.5,93.9z"
	/>
<path class="st3" d="M85.6,66.2v0.3h-16c-8.8-0.3-15.8-6.3-15.8-13.7h16.5C78.7,53,85.4,58.9,85.6,66.2z"/>
<path class="st3" d="M70.2,52.8h-0.5v0c0.1,0,0.2,0,0.3,0C70,52.8,70.1,52.8,70.2,52.8z"/>
<path class="st3" d="M85.6,66.4C85.6,66.4,85.6,66.4,85.6,66.4L85.6,66.4L85.6,66.4C85.6,66.4,85.6,66.4,85.6,66.4v0.1H69.7v0h15.9
	v-0.3C85.6,66.2,85.6,66.3,85.6,66.4L85.6,66.4C85.6,66.4,85.6,66.4,85.6,66.4z"/>
<path class="st3" d="M117.5,66.4C117.5,66.4,117.5,66.4,117.5,66.4L117.5,66.4L117.5,66.4C117.5,66.4,117.5,66.4,117.5,66.4v0.1
	h-15.9V52.8h0c0.1,0,0.2,0,0.3,0C110.4,52.9,117.4,58.9,117.5,66.4L117.5,66.4C117.5,66.4,117.5,66.4,117.5,66.4z"/>
<path class="st3" d="M53.7,39v13.7c0,0,0,0,0,0c0,0,0,0,0,0H37.8v0c0-6.7,5.6-12.3,13-13.5C51.8,39.1,52.7,39,53.7,39z"/>
<path class="st3" d="M69.7,80.3V94c0,0,0,0,0,0H53.7v0c0-6.7,5.6-12.3,13-13.5C67.7,80.3,68.7,80.3,69.7,80.3z"/>
<path class="st3" d="M133.4,52.7v13.7c0,0,0,0,0,0h-15.9v0c0-6.7,5.6-12.3,13-13.5C131.5,52.8,132.5,52.7,133.4,52.7z"/>
<path class="st4" d="M69.7,52.7L69.7,52.7l-15.9,0v0c0,0,0,0,0,0V39c8.7,0,15.8,6.1,15.9,13.6C69.7,52.6,69.7,52.7,69.7,52.7z"/>
<path class="st5" d="M21.9,52.8v13.7c-1,0-2.1-0.1-3-0.3C11.5,65,5.9,59.4,5.9,52.8H21.9z"/>
<path class="st6" d="M37.8,66.5C37.8,66.5,37.8,66.6,37.8,66.5c-0.1,7.6-7.2,13.7-15.9,13.7V66.5H37.8z"/>
<path class="st6" d="M85.6,66.5C85.6,66.5,85.6,66.6,85.6,66.5c-0.1,7.6-7.2,13.7-15.9,13.7V66.5H85.6z"/>
<path class="st5" d="M53.7,80.2C53.7,80.3,53.7,80.3,53.7,80.2C53.7,87.9,46.6,94,37.8,94V80.2H53.7z"/>
<path class="st2" d="M101.6,66.5L101.6,66.5C101.6,66.5,101.6,66.6,101.6,66.5c0,0.1,0,0.2,0,0.2c-0.1,7.3-6.9,13.3-15.4,13.5
	c-0.1,0-0.2,0-0.3,0c0,0-0.1,0-0.1,0h-0.1V66.5H101.6z"/>
<path class="st4" d="M37.8,39c0,7.5-7,13.6-15.7,13.7c0,0-0.1,0-0.1,0h-0.1V39H37.8z"/>
<path class="st4" d="M53.7,66.5c0,7.6-7.1,13.7-15.9,13.7h0V66.5H53.7z"/>
<path class="st4" d="M117.5,66.5c0,7.6-7.1,13.7-15.9,13.7h0V66.5H117.5z"/>
<path class="st4" d="M53.7,52.8L53.7,52.8c0,0.1,0,0.1,0,0.2c-0.1,7.4-7,13.4-15.7,13.6c-0.1,0-0.2,0-0.3,0h0V52.8H53.7z"/>
<path class="st5" d="M85.6,52.7L85.6,52.7l-15.9,0V39c8.7,0,15.8,6.1,15.9,13.6c0,0,0,0,0,0"/>
<path class="st6" d="M101.5,52.6v0.2H85.6v-0.1c0,0,0,0,0,0C85.5,45.1,78.4,39,69.7,39h15.9C94.4,39,101.4,45.1,101.5,52.6z"/>
<path class="st6" d="M101.6,52.6C101.6,52.6,101.6,52.6,101.6,52.6L101.6,52.6C101.6,52.6,101.6,52.6,101.6,52.6z"/>
<path class="st6" d="M101.5,52.6c0,0,0,0.1,0,0.1v0H85.6v0h15.9V52.6z"/>
<path class="st4" d="M21.9,66.5v13.7H5.9C6.2,72.6,13.2,66.5,21.9,66.5z"/>
<path class="st4" d="M101.6,52.8v13.7H85.6C85.9,58.9,92.9,52.8,101.6,52.8z"/>
<path class="st3" d="M21.9,80.2h15.9V94C28.9,93.8,21.9,87.7,21.9,80.2z"/>
<path class="st4" d="M117.5,80.3h15.9V94C124.6,93.8,117.5,87.7,117.5,80.3z"/>
<path class="st3" d="M69.7,66.5L69.7,66.5L69.7,66.5c0,0-0.1,0-0.1,0H69.7z"/>
<rect x="53.7" y="52.8" class="st3" width="15.9" height="0"/>
<g class="st7">
</g>
</svg>
